<svg width="42" height="42" viewBox="0 0 42 42" fill="none" xmlns="http://www.w3.org/2000/svg">
<g clip-path="url(#clip0_2_33)">
<path d="M39.2001 16.8V32.2C39.2001 32.5713 39.0526 32.9274 38.79 33.1899C38.5275 33.4525 38.1714 33.6 37.8001 33.6C37.4288 33.6 37.0727 33.4525 36.8101 33.1899C36.5476 32.9274 36.4001 32.5713 36.4001 32.2V26.6C36.4001 25.4861 35.9576 24.4178 35.1699 23.6301C34.3823 22.8425 33.314 22.4 32.2001 22.4H28.0001V5.6C28.0001 4.85739 27.7051 4.1452 27.18 3.6201C26.6549 3.09499 25.9427 2.8 25.2001 2.8H8.4001C7.65749 2.8 6.9453 3.09499 6.4202 3.6201C5.8951 4.1452 5.6001 4.85739 5.6001 5.6V36.4C5.6001 37.1426 5.8951 37.8548 6.4202 38.3799C6.9453 38.905 7.65749 39.2 8.4001 39.2H25.2001C25.9427 39.2 26.6549 38.905 27.18 38.3799C27.7051 37.8548 28.0001 37.1426 28.0001 36.4V25.2H32.2001C32.5714 25.2 32.9275 25.3475 33.19 25.61C33.4526 25.8726 33.6001 26.2287 33.6001 26.6V32.2C33.6001 33.3139 34.0426 34.3822 34.8302 35.1698C35.6179 35.9575 36.6862 36.4 37.8001 36.4C38.914 36.4 39.9823 35.9575 40.7699 35.1698C41.5576 34.3822 42.0001 33.3139 42.0001 32.2V14C42.0001 13.2574 41.7051 12.5452 41.18 12.0201C40.6549 11.495 39.9427 11.2 39.2001 11.2V6.972C39.1928 6.60557 39.042 6.25662 38.7803 6.0001C38.5185 5.74357 38.1666 5.59992 37.8001 5.6C37.6051 5.60322 37.4129 5.64633 37.2352 5.72669C37.0575 5.80705 36.8982 5.92294 36.767 6.06722C36.6359 6.21151 36.5357 6.38113 36.4725 6.56563C36.4094 6.75013 36.3848 6.9456 36.4001 7.14V14C36.4001 14.5538 36.5643 15.0951 36.872 15.5556C37.1797 16.0161 37.6169 16.3749 38.1286 16.5869C38.6402 16.7988 39.2032 16.8542 39.7463 16.7462C40.2895 16.6382 40.7884 16.3715 41.18 15.9799C41.5716 15.5883 41.8383 15.0894 41.9463 14.5462C42.0543 14.0031 41.9989 13.4401 41.787 12.9285C41.575 12.4168 41.2162 11.9795 40.7557 11.6719C40.2952 11.3642 39.7539 11.2 39.2001 11.2V16.8ZM25.2001 18.2C25.2001 18.5713 25.0526 18.9274 24.79 19.1899C24.5275 19.4525 24.1714 19.6 23.8001 19.6H9.8001C9.42879 19.6 9.0727 19.4525 8.81015 19.1899C8.5476 18.9274 8.4001 18.5713 8.4001 18.2V9.8C8.4001 9.42869 8.5476 9.0726 8.81015 8.81005C9.0727 8.5475 9.42879 8.4 9.8001 8.4H23.8001C24.1714 8.4 24.5275 8.5475 24.79 8.81005C25.0526 9.0726 25.2001 9.42869 25.2001 9.8V18.2Z" fill="black"/>
</g>
<defs>
<clipPath id="clip0_2_33">
<rect width="42" height="42" fill="white"/>
</clipPath>
</defs>
</svg>
